# xmcd
#
# Track frame offsets: 
#        150
#        14310
#        29263
#        44128
#        58137
#        72423
#        87560
#        100857
#        113978
#        127558
#        140913
#        155290
#        168727
#        182179
#        194816
#        208185
#        221251
#        235392
#        247554
#        260256
#
# Disc length: 3649 seconds
#
# Revision: 0
# Processed by: cddbd v1.5.1PL0 Copyright (c) Steve Scherf et al.
# Submitted via: ExactAudioCopy v0.95b2
#
DISCID=2a0e3f14
DTITLE=Bessie Smith - Young Woman's Blues
DYEAR=2003
DGENRE=Blues
TTITLE0=Young Woman's Blues
TTITLE1=There'll be a Hot Time in the Old Town Tonight
TTITLE2=Back Water Blues
TTITLE3=Muddy Water
TTITLE4=Trombone Cholly
TTITLE5=Send Me to the 'Lectric Chair
TTITLE6=Them's Grave Words
TTITLE7=Hot Spring Blues
TTITLE8=Sweet Mistreater
TTITLE9=Lock and Key
TTITLE10=Mean Old Bedbug Blues
TTITLE11=A Good Man is Hard to Find
TTITLE12=Homeless Blues
TTITLE13=Lokking for my Man Blues
TTITLE14=Dyin' by the Hour
TTITLE15=Foolish Man Blues
TTITLE16=Thinking Blues
TTITLE17=Pickpocket Blues
TTITLE18=I Used to be Your Sweet Mama
TTITLE19=I'd Rather be Dead and Buried in my Grave
EXTD=
EXTT0=
EXTT1=
EXTT2=
EXTT3=
EXTT4=
EXTT5=
EXTT6=
EXTT7=
EXTT8=
EXTT9=
EXTT10=
EXTT11=
EXTT12=
EXTT13=
EXTT14=
EXTT15=
EXTT16=
EXTT17=
EXTT18=
EXTT19=
PLAYORDER=
